# xmcd CD database file
#
# Track frame offsets:
#	150
#	5107
#	13447
#	21690
#	35102
#	47245
#	59100
#	67802
#	76802
#	86220
#	98800
#	109385
#	116937
#	130492
#	141015
#	160847
#	174450
#	183030
#	194425
#	205515
#	218370
#	232210
#	247827
#
# Disc length: 3434 seconds
#
# Revision: 2
# Processed by: cddbd v1.5.2PL0 Copyright (c) Steve Scherf et al.
# Submitted via: CDex 1.70beta3
#
DISCID=530d6817
DTITLE=Song Collection - SF特撮TV主題歌全集
DYEAR=1900
DGENRE=Unclassifiable
TTITLE0=悪魔くんオープニング
TTITLE1=悪魔くん主題歌
TTITLE2=なまけもの節
TTITLE3=忍者マーチ
TTITLE4=赤影の歌
TTITLE5=キャプテンウルトラ
TTITLE6=ハックとジョー
TTITLE7=宇宙マーチ
TTITLE8=ジャイアントロボ
TTITLE9=ジャイアントロボ・ソング
TTITLE10=妖怪大作戦
TTITLE11=唄う妖怪
TTITLE12=恐怖の町
TTITLE13=深山エミ/死神の子守唄
TTITLE14=サニー・トーンズ/暗闇のバラード
TTITLE15=怪奇ソング
TTITLE16=冨田勲/アンバランス
TTITLE17=故郷は地球
TTITLE18=戦え! シルバー仮面
TTITLE19=戦え! ミラーマン
TTITLE20=朝日に向ってジャンボフェニックス
TTITLE21=緊急指令10-4 10-10
TTITLE22=電波特捜隊
EXTD=
EXTT0=
EXTT1=
EXTT2=
EXTT3=
EXTT4=
EXTT5=
EXTT6=
EXTT7=
EXTT8=
EXTT9=
EXTT10=
EXTT11=
EXTT12=
EXTT13=
EXTT14=
EXTT15=
EXTT16=
EXTT17=
EXTT18=
EXTT19=
EXTT20=
EXTT21=
EXTT22=
PLAYORDER=
